# xmcd
#
# Track frame offsets: 
#        150
#        22775
#        45889
#        61630
#        84770
#        113560
#        131370
#        160795
#        183532
#        202037
#
# Disc length: 2958 seconds
#
# Revision: 3
# Processed by: cddbd v1.5.2PL0 Copyright (c) Steve Scherf et al.
# Submitted via: ExactAudioCopy v1.3
#
DISCID=680b8c0a
DTITLE=Fleetwood Mac - Live
DYEAR=1900
DGENRE=Rock
TTITLE0=Got To Move
TTITLE1=I Held My Baby Last Night
TTITLE2=My Baby's Sweet
TTITLE3=My Baby's A Good Un
TTITLE4=Don't Know Which Way To Go
TTITLE5=Buzz Me
TTITLE6=The Worried Dream
TTITLE7=The World Keeps On Turning
TTITLE8=How Blue Can You Get
TTITLE9=Bleeding Heart
EXTD=
EXTT0=
EXTT1=
EXTT2=
EXTT3=
EXTT4=
EXTT5=
EXTT6=
EXTT7=
EXTT8=
EXTT9=
PLAYORDER=
